<svg xmlns="http://www.w3.org/2000/svg" viewBox="0 0 512 512"><rect x="0" y="0" width="512" height="512" rx="112" fill="#16181C"/><defs><clipPath id="face"><rect x="160" y="112" width="192" height="278" rx="6" fill="#000"/></clipPath></defs><rect x="134" y="398" width="244" height="14" rx="3" fill="#3A3F46"/><rect x="152" y="104" width="208" height="294" rx="10" fill="#E6F2EF"/><rect x="160" y="112" width="192" height="278" rx="6" fill="#CFE6E0"/><polygon points="160,112 268,112 160,250" fill="#FFFFFF" fill-opacity="0.32" clip-path="url(#face)"/><rect x="221" y="146" width="70" height="10" rx="5" fill="#7FA79D"/><rect x="206" y="174" width="100" height="50" rx="8" fill="#6E988E"/><rect x="216" y="236" width="80" height="9" rx="4.5" fill="#7FA79D"/><rect x="226" y="264" width="60" height="3" rx="1.5" fill="#7FA79D"/><rect x="186" y="284" width="140" height="13" rx="6.5" fill="#6E988E"/><rect x="206" y="306" width="100" height="13" rx="6.5" fill="#6E988E"/><rect x="226" y="334" width="60" height="3" rx="1.5" fill="#7FA79D"/><rect x="216" y="350" width="80" height="9" rx="4.5" fill="#7FA79D"/></svg>
